<svg width="223" height="221" viewBox="0 0 223 221" fill="none" xmlns="http://www.w3.org/2000/svg">
<g filter="url(#filter0_b_0_1)">
<path d="M223 69.5C223 107.884 191.884 139 153.5 139C115.116 139 84 107.884 84 69.5C84 31.1162 115.116 0 153.5 0C191.884 0 223 31.1162 223 69.5Z" fill="url(#paint0_radial_0_1)"/>
</g>
<g style="mix-blend-mode:overlay" filter="url(#filter1_b_0_1)">
<rect y="51" width="162" height="170" fill="#64B0F7" fill-opacity="0.95"/>
<rect x="0.5" y="51.5" width="161" height="169" stroke="url(#paint1_radial_0_1)"/>
</g>
<g style="mix-blend-mode:overlay">
<path d="M20.428 75.14C20.884 75.14 21.292 75.26 21.652 75.5C22.036 75.74 22.264 76.16 22.336 76.76C22.624 78.656 22.804 80.552 22.876 82.448C22.972 84.32 23.02 86.444 23.02 88.82C23.02 89.828 22.936 91.664 22.768 94.328C23.824 94.424 24.64 94.472 25.216 94.472C25.624 94.472 26.548 94.412 27.988 94.292C28.828 94.172 29.56 94.112 30.184 94.112C30.76 94.112 31.288 94.172 31.768 94.292C32.248 94.388 32.74 94.556 33.244 94.796C33.748 95.084 34 95.528 34 96.128C34 96.608 33.844 97.04 33.532 97.424C33.244 97.808 32.896 98 32.488 98C32.2 98 31.744 97.952 31.12 97.856C29.992 97.688 28.912 97.604 27.88 97.604C27.544 97.604 27.16 97.628 26.728 97.676C26.32 97.7 26.02 97.712 25.828 97.712C25.252 97.784 24.676 97.82 24.1 97.82C22.924 97.82 21.868 97.76 20.932 97.64C20.452 97.592 19.972 97.412 19.492 97.1C19.012 96.764 18.772 96.284 18.772 95.66C18.772 95.3 18.82 94.376 18.916 92.888C19.084 90.416 19.168 88.532 19.168 87.236C19.168 86.228 19.12 85.172 19.024 84.068C18.928 82.964 18.868 82.268 18.844 81.98C18.628 79.94 18.52 78.26 18.52 76.94C18.52 76.316 18.664 75.86 18.952 75.572C19.264 75.284 19.756 75.14 20.428 75.14ZM35.7958 90.368C35.7958 89.456 35.9638 88.544 36.2998 87.632C36.6358 86.696 37.0798 85.844 37.6318 85.076C38.1838 84.308 39.0598 83.684 40.2598 83.204C41.4598 82.7 42.5278 82.448 43.4638 82.448C44.4238 82.448 45.3958 82.58 46.3798 82.844C47.3878 83.108 48.0838 83.516 48.4678 84.068C49.3558 85.316 49.7998 86.54 49.7998 87.74C49.7998 88.388 49.6558 88.94 49.3678 89.396C49.1038 89.852 48.7198 90.344 48.2158 90.872C47.8078 91.304 47.1598 91.592 46.2718 91.736C45.4078 91.88 44.5438 91.952 43.6798 91.952C43.1278 91.952 42.4558 91.904 41.6638 91.808C40.8718 91.688 40.1038 91.544 39.3598 91.376C39.4078 91.856 39.5278 92.324 39.7198 92.78C39.9118 93.236 40.1398 93.584 40.4038 93.824C40.8838 94.28 41.3758 94.568 41.8798 94.688C42.4078 94.808 43.0798 94.868 43.8958 94.868C44.7598 94.868 45.5638 94.724 46.3078 94.436C46.9078 94.22 47.3998 94.112 47.7838 94.112C48.2398 94.112 48.5878 94.256 48.8278 94.544C49.0678 94.808 49.1878 95.156 49.1878 95.588C49.1878 96.188 48.8398 96.68 48.1438 97.064C47.4478 97.448 46.6438 97.736 45.7318 97.928C44.8438 98.096 44.1238 98.18 43.5718 98.18C42.4438 98.18 41.3518 97.976 40.2958 97.568C39.2398 97.16 38.3638 96.584 37.6678 95.84C37.0918 95.168 36.6358 94.364 36.2998 93.428C35.9638 92.468 35.7958 91.448 35.7958 90.368ZM43.6438 85.508C43.1158 85.508 42.5878 85.616 42.0598 85.832C41.5318 86.024 41.0998 86.3 40.7638 86.66C40.3318 87.116 40.0318 87.488 39.8638 87.776C39.7198 88.04 39.6238 88.412 39.5758 88.892C40.1758 89.084 41.4238 89.18 43.3198 89.18C44.3518 89.18 45.1438 89.024 45.6958 88.712C46.2718 88.4 46.5598 87.992 46.5598 87.488C46.5598 86.984 46.2478 86.528 45.6238 86.12C44.9998 85.712 44.3398 85.508 43.6438 85.508ZM53.24 85.544C52.904 85.496 52.628 85.352 52.412 85.112C52.22 84.872 52.124 84.584 52.124 84.248C52.124 84.08 52.16 83.9 52.232 83.708C52.328 83.516 52.46 83.348 52.628 83.204C52.94 82.892 53.78 82.736 55.148 82.736C55.34 81.8 55.436 80.852 55.436 79.892C55.436 79.532 55.424 79.22 55.4 78.956C55.376 78.692 55.364 78.488 55.364 78.344C55.364 77.816 55.556 77.42 55.94 77.156C56.348 76.892 56.804 76.76 57.308 76.76C57.932 76.76 58.352 76.916 58.568 77.228C58.808 77.54 58.928 78.116 58.928 78.956C58.928 80.204 58.82 81.428 58.604 82.628C58.988 82.628 59.516 82.604 60.188 82.556C61.1 82.508 61.76 82.484 62.168 82.484C62.576 82.484 62.924 82.592 63.212 82.808C63.524 83 63.68 83.276 63.68 83.636C63.68 84.572 63.26 85.124 62.42 85.292C61.532 85.508 60.152 85.64 58.28 85.688C58.208 86.624 58.172 87.644 58.172 88.748C58.172 90.476 58.28 91.892 58.496 92.996C58.64 93.764 58.88 94.328 59.216 94.688C59.576 95.024 60.104 95.192 60.8 95.192C61.208 95.192 61.628 95.084 62.06 94.868C62.348 94.7 62.612 94.616 62.852 94.616C63.188 94.616 63.428 94.724 63.572 94.94C63.74 95.156 63.824 95.444 63.824 95.804C63.824 96.476 63.464 97.04 62.744 97.496C62.024 97.928 61.1 98.144 59.972 98.144C59.276 98.144 58.568 97.976 57.848 97.64C57.152 97.304 56.564 96.884 56.084 96.38C56.012 96.308 55.88 96.032 55.688 95.552C55.496 95.072 55.328 94.556 55.184 94.004C54.944 92.876 54.824 91.292 54.824 89.252C54.824 88.364 54.872 87.176 54.968 85.688L53.24 85.544ZM67.8552 78.668C67.5912 78.668 67.3992 78.62 67.2792 78.524C66.9672 78.332 66.7032 78.104 66.4872 77.84C66.2952 77.576 66.1992 77.192 66.1992 76.688C66.2232 76.328 66.3072 76.016 66.4512 75.752C66.5952 75.464 66.7992 75.26 67.0632 75.14C67.5672 74.876 68.2152 74.744 69.0072 74.744C69.5832 74.744 70.0272 74.96 70.3392 75.392C70.6752 75.8 70.8432 76.304 70.8432 76.904C70.8432 77.624 70.6272 78.464 70.1952 79.424C69.7872 80.36 69.3792 81.092 68.9712 81.62C68.6592 81.98 68.3112 82.292 67.9272 82.556C67.5432 82.82 67.2072 82.952 66.9192 82.952C66.3432 82.952 65.9832 82.868 65.8392 82.7C65.7192 82.508 65.6592 82.184 65.6592 81.728C65.6592 81.536 65.9112 81.236 66.4152 80.828C66.8232 80.468 67.0752 80.216 67.1712 80.072C67.5312 79.592 67.7952 79.124 67.9632 78.668H67.8552ZM83.8161 90.224C84.0081 90.344 84.3801 90.572 84.9321 90.908C85.5081 91.22 85.8921 91.592 86.0841 92.024C86.2761 92.456 86.3721 93.056 86.3721 93.824C86.3721 94.688 86.1201 95.456 85.6161 96.128C85.1121 96.776 84.4641 97.28 83.6721 97.64C83.1201 97.88 82.5201 98.024 81.8721 98.072C81.2481 98.12 80.4921 98.144 79.6041 98.144C79.1241 98.144 78.5001 98.072 77.7321 97.928C76.9881 97.784 76.4721 97.652 76.1841 97.532C75.4161 97.1 74.7681 96.596 74.2401 96.02C73.7121 95.444 73.4481 94.856 73.4481 94.256C73.4481 93.776 73.6041 93.392 73.9161 93.104C74.2281 92.816 74.6361 92.672 75.1401 92.672C75.4041 92.672 75.6561 92.744 75.8961 92.888C76.1601 93.008 76.3401 93.152 76.4361 93.32C76.7001 93.944 77.1441 94.412 77.7681 94.724C78.3921 95.036 79.0281 95.192 79.6761 95.192C81.9561 95.192 83.0961 94.784 83.0961 93.968C83.0961 93.752 83.0361 93.584 82.9161 93.464C82.8201 93.32 82.6761 93.176 82.4841 93.032C82.1721 92.816 81.7281 92.588 81.1521 92.348C80.6001 92.108 80.1081 91.928 79.6761 91.808C78.6921 91.592 77.7321 91.268 76.7961 90.836C75.9321 90.404 75.2241 89.84 74.6721 89.144C74.1201 88.424 73.8441 87.548 73.8441 86.516C73.8441 85.892 74.0721 85.28 74.5281 84.68C75.0081 84.056 75.5601 83.588 76.1841 83.276C76.6161 83.108 77.3241 82.928 78.3081 82.736C79.2921 82.544 79.9641 82.448 80.3241 82.448C80.8761 82.448 81.4761 82.508 82.1241 82.628C82.7721 82.724 83.2641 82.892 83.6001 83.132C84.2481 83.516 84.7761 83.924 85.1841 84.356C85.5921 84.764 85.7961 85.232 85.7961 85.76C85.7961 86.024 85.7361 86.312 85.6161 86.624C85.4961 86.912 85.3521 87.092 85.1841 87.164C84.8241 87.332 84.4041 87.416 83.9241 87.416C83.7081 87.416 83.5281 87.356 83.3841 87.236C83.2641 87.116 83.0961 86.924 82.8801 86.66C82.6161 86.252 82.3641 86.012 82.1241 85.94C81.8361 85.868 81.4161 85.784 80.8641 85.688C80.3121 85.568 79.9401 85.508 79.7481 85.508C79.1481 85.508 78.5721 85.628 78.0201 85.868C77.4921 86.108 77.2281 86.432 77.2281 86.84C77.2281 87.32 77.6241 87.728 78.4161 88.064C78.9201 88.304 79.4721 88.508 80.0721 88.676C80.6961 88.844 81.0801 88.952 81.2241 89C81.5601 89.072 81.9921 89.24 82.5201 89.504C83.0721 89.768 83.5041 90.008 83.8161 90.224ZM39.364 107.248C39.7 107.248 40.108 107.476 40.588 107.932C41.092 108.364 41.344 108.736 41.344 109.048C41.344 110.512 41.296 112.516 41.2 115.06C41.176 115.684 41.152 116.44 41.128 117.328C41.104 118.192 41.092 119.2 41.092 120.352C41.092 124 41.308 126.688 41.74 128.416C41.716 128.992 41.488 129.412 41.056 129.676C40.624 129.916 40.192 130.036 39.76 130.036C38.8 130.036 38.164 129.7 37.852 129.028C37.564 128.356 37.42 127.396 37.42 126.148C37.42 121.516 37.468 117.256 37.564 113.368C34.804 116.44 32.656 119.02 31.12 121.108C31.12 121.108 30.904 121.252 30.472 121.54C30.064 121.9 29.728 122.08 29.464 122.08C28.84 122.08 28.324 121.924 27.916 121.612C27.508 121.3 27.112 120.844 26.728 120.244L25 117.796C23.8 116.116 22.924 114.844 22.372 113.98C22.372 116.188 22.48 119.188 22.696 122.98C22.864 125.164 22.948 126.808 22.948 127.912C22.948 128.488 22.804 128.98 22.516 129.388C22.228 129.772 21.772 129.964 21.148 129.964C20.524 129.964 20.008 129.844 19.6 129.604C19.216 129.364 19.012 129.004 18.988 128.524C19.012 128.116 19.024 127.444 19.024 126.508C19.024 124.636 18.964 122.356 18.844 119.668L18.772 117.724L18.7 115.204C18.676 114.46 18.652 113.596 18.628 112.612C18.604 111.604 18.592 110.512 18.592 109.336C18.592 107.896 19.372 107.176 20.932 107.176C21.412 107.176 21.892 107.296 22.372 107.536C22.876 107.776 23.248 108.124 23.488 108.58C23.68 109.42 24.388 110.812 25.612 112.756C26.836 114.7 28.036 116.524 29.212 118.228C30.268 116.884 31.132 115.876 31.804 115.204C32.956 114.028 33.904 112.936 34.648 111.928C35.416 110.92 36.244 109.708 37.132 108.292C37.348 108.004 37.66 107.764 38.068 107.572C38.476 107.356 38.908 107.248 39.364 107.248ZM45.9208 122.368C45.9208 121.456 46.0888 120.544 46.4248 119.632C46.7608 118.696 47.2048 117.844 47.7568 117.076C48.3088 116.308 49.1848 115.684 50.3848 115.204C51.5848 114.7 52.6528 114.448 53.5888 114.448C54.5488 114.448 55.5208 114.58 56.5048 114.844C57.5128 115.108 58.2088 115.516 58.5928 116.068C59.4808 117.316 59.9248 118.54 59.9248 119.74C59.9248 120.388 59.7808 120.94 59.4928 121.396C59.2288 121.852 58.8448 122.344 58.3408 122.872C57.9328 123.304 57.2848 123.592 56.3968 123.736C55.5328 123.88 54.6688 123.952 53.8048 123.952C53.2528 123.952 52.5808 123.904 51.7888 123.808C50.9968 123.688 50.2288 123.544 49.4848 123.376C49.5328 123.856 49.6528 124.324 49.8448 124.78C50.0368 125.236 50.2648 125.584 50.5288 125.824C51.0088 126.28 51.5008 126.568 52.0048 126.688C52.5328 126.808 53.2048 126.868 54.0208 126.868C54.8848 126.868 55.6888 126.724 56.4328 126.436C57.0328 126.22 57.5248 126.112 57.9088 126.112C58.3648 126.112 58.7128 126.256 58.9528 126.544C59.1928 126.808 59.3128 127.156 59.3128 127.588C59.3128 128.188 58.9648 128.68 58.2688 129.064C57.5728 129.448 56.7688 129.736 55.8568 129.928C54.9688 130.096 54.2488 130.18 53.6968 130.18C52.5688 130.18 51.4768 129.976 50.4208 129.568C49.3648 129.16 48.4888 128.584 47.7928 127.84C47.2168 127.168 46.7608 126.364 46.4248 125.428C46.0888 124.468 45.9208 123.448 45.9208 122.368ZM53.7688 117.508C53.2408 117.508 52.7128 117.616 52.1848 117.832C51.6568 118.024 51.2248 118.3 50.8888 118.66C50.4568 119.116 50.1568 119.488 49.9888 119.776C49.8448 120.04 49.7488 120.412 49.7008 120.892C50.3008 121.084 51.5488 121.18 53.4448 121.18C54.4768 121.18 55.2688 121.024 55.8208 120.712C56.3968 120.4 56.6848 119.992 56.6848 119.488C56.6848 118.984 56.3728 118.528 55.7488 118.12C55.1248 117.712 54.4648 117.508 53.7688 117.508ZM63.005 121.756C63.005 120.292 63.329 119.08 63.977 118.12C64.625 117.136 65.525 116.212 66.677 115.348C67.013 115.108 67.577 114.904 68.369 114.736C69.161 114.544 69.857 114.448 70.457 114.448C71.177 114.448 71.933 114.604 72.725 114.916C73.541 115.204 74.201 115.54 74.705 115.924C75.593 116.572 76.205 117.328 76.541 118.192C76.877 119.032 77.045 120.04 77.045 121.216C77.045 121.72 76.757 122.212 76.181 122.692C75.629 123.148 75.029 123.376 74.381 123.376L73.013 123.34C72.317 123.34 71.321 123.364 70.025 123.412L69.269 123.448C68.741 123.496 68.345 123.52 68.081 123.52C67.697 123.52 67.169 123.472 66.497 123.376C66.593 124.504 67.013 125.392 67.757 126.04C68.501 126.664 69.305 126.976 70.169 126.976C71.681 126.976 72.737 126.676 73.337 126.076C73.841 125.716 74.177 125.488 74.345 125.392C74.513 125.296 74.777 125.248 75.137 125.248C75.521 125.248 75.857 125.428 76.145 125.788C76.433 126.148 76.577 126.508 76.577 126.868C76.577 127.276 76.325 127.696 75.821 128.128C75.341 128.536 74.681 128.968 73.841 129.424C73.385 129.616 72.761 129.784 71.969 129.928C71.177 130.072 70.517 130.144 69.989 130.144C69.149 130.144 68.213 129.904 67.181 129.424C66.149 128.92 65.381 128.368 64.877 127.768C64.373 127.168 63.929 126.316 63.545 125.212C63.185 124.108 63.005 122.956 63.005 121.756ZM70.169 120.784C71.873 120.784 73.121 120.724 73.913 120.604C73.865 119.908 73.649 119.344 73.265 118.912C72.881 118.456 72.353 118.072 71.681 117.76C71.465 117.664 71.273 117.592 71.105 117.544C70.937 117.496 70.745 117.472 70.529 117.472C69.425 117.472 68.489 117.772 67.721 118.372C66.977 118.972 66.533 119.74 66.389 120.676C67.589 120.748 68.849 120.784 70.169 120.784ZM80.451 117.544C80.115 117.496 79.839 117.352 79.623 117.112C79.431 116.872 79.335 116.584 79.335 116.248C79.335 116.08 79.371 115.9 79.443 115.708C79.539 115.516 79.671 115.348 79.839 115.204C80.151 114.892 80.991 114.736 82.359 114.736C82.551 113.8 82.647 112.852 82.647 111.892C82.647 111.532 82.635 111.22 82.611 110.956C82.587 110.692 82.575 110.488 82.575 110.344C82.575 109.816 82.767 109.42 83.151 109.156C83.559 108.892 84.015 108.76 84.519 108.76C85.143 108.76 85.563 108.916 85.779 109.228C86.019 109.54 86.139 110.116 86.139 110.956C86.139 112.204 86.031 113.428 85.815 114.628C86.199 114.628 86.727 114.604 87.399 114.556C88.311 114.508 88.971 114.484 89.379 114.484C89.787 114.484 90.135 114.592 90.423 114.808C90.735 115 90.891 115.276 90.891 115.636C90.891 116.572 90.471 117.124 89.631 117.292C88.743 117.508 87.363 117.64 85.491 117.688C85.419 118.624 85.383 119.644 85.383 120.748C85.383 122.476 85.491 123.892 85.707 124.996C85.851 125.764 86.091 126.328 86.427 126.688C86.787 127.024 87.315 127.192 88.011 127.192C88.419 127.192 88.839 127.084 89.271 126.868C89.559 126.7 89.823 126.616 90.063 126.616C90.399 126.616 90.639 126.724 90.783 126.94C90.951 127.156 91.035 127.444 91.035 127.804C91.035 128.476 90.675 129.04 89.955 129.496C89.235 129.928 88.311 130.144 87.183 130.144C86.487 130.144 85.779 129.976 85.059 129.64C84.363 129.304 83.775 128.884 83.295 128.38C83.223 128.308 83.091 128.032 82.899 127.552C82.707 127.072 82.539 126.556 82.395 126.004C82.155 124.876 82.035 123.292 82.035 121.252C82.035 120.364 82.083 119.176 82.179 117.688L80.451 117.544Z" fill="white"/>
</g>
<defs>
<filter id="filter0_b_0_1" x="80" y="-4" width="147" height="147" filterUnits="userSpaceOnUse" color-interpolation-filters="sRGB">
<feFlood flood-opacity="0" result="BackgroundImageFix"/>
<feGaussianBlur in="BackgroundImageFix" stdDeviation="2"/>
<feComposite in2="SourceAlpha" operator="in" result="effect1_backgroundBlur_0_1"/>
<feBlend mode="normal" in="SourceGraphic" in2="effect1_backgroundBlur_0_1" result="shape"/>
</filter>
<filter id="filter1_b_0_1" x="-4" y="47" width="170" height="178" filterUnits="userSpaceOnUse" color-interpolation-filters="sRGB">
<feFlood flood-opacity="0" result="BackgroundImageFix"/>
<feGaussianBlur in="BackgroundImageFix" stdDeviation="2"/>
<feComposite in2="SourceAlpha" operator="in" result="effect1_backgroundBlur_0_1"/>
<feBlend mode="normal" in="SourceGraphic" in2="effect1_backgroundBlur_0_1" result="shape"/>
</filter>
<radialGradient id="paint0_radial_0_1" cx="0" cy="0" r="1" gradientUnits="userSpaceOnUse" gradientTransform="translate(153.5 69.5) rotate(90) scale(69.5)">
<stop offset="0.331667" stop-color="#1C62EA"/>
<stop offset="0.9996" stop-color="#4A83F1"/>
<stop offset="0.9997" stop-color="#77A2F7"/>
<stop offset="0.9998" stop-color="#5C8FF3"/>
</radialGradient>
<radialGradient id="paint1_radial_0_1" cx="0" cy="0" r="1" gradientUnits="userSpaceOnUse" gradientTransform="translate(55 75) rotate(79.9025) scale(148.297 141.318)">
<stop stop-color="#13A7B1" stop-opacity="0.2"/>
</radialGradient>
</defs>
</svg>
