<svg width="291" height="258" viewBox="0 0 291 258" fill="none" xmlns="http://www.w3.org/2000/svg">
<g filter="url(#filter0_d_0_1)">
<rect x="4" width="283" height="250" rx="12" fill="#F5D0D0"/>
</g>
<g filter="url(#filter1_b_0_1)">
<path d="M132.911 68.0935C140.594 30.4865 177.309 6.22826 214.916 13.9112C252.523 21.5942 276.781 58.3089 269.098 95.9159C261.415 133.523 224.701 157.781 187.094 150.098C149.487 142.415 125.228 105.701 132.911 68.0935Z" fill="url(#paint0_radial_0_1)"/>
</g>
<g style="mix-blend-mode:overlay" filter="url(#filter2_b_0_1)">
<path d="M178.973 62.1933C190.571 62.0865 200.059 71.4016 200.166 82.9991L201.28 204.022C201.386 215.62 192.071 225.108 180.474 225.215L55.4998 226.365C43.9023 226.472 34.4141 217.157 34.3074 205.559L33.1933 84.5361C33.0865 72.9386 42.4016 63.4505 53.9991 63.3437L178.973 62.1933Z" fill="#64B0F7" fill-opacity="0.95"/>
<path d="M199.666 83.0037L200.78 204.027C200.884 215.348 191.791 224.61 180.469 224.715L55.4952 225.865C44.1738 225.969 34.9116 216.876 34.8073 205.555L33.6933 84.5315C33.5891 73.2102 42.6824 63.9479 54.0037 63.8437L178.978 62.6933C190.299 62.5891 199.561 71.6823 199.666 83.0037Z" stroke="url(#paint1_radial_0_1)"/>
</g>
<g style="mix-blend-mode:overlay">
<path d="M164.35 189.2C164.25 190.4 164.1 191.65 163.9 192.95C163.7 194.25 163.35 195.45 162.85 196.55C162.35 197.75 161.7 198.65 160.9 199.25C159.8 200.25 158.5 200.8 157 200.9C155.6 201.4 154.25 201.55 152.95 201.35C151.65 201.15 150.45 200.8 149.35 200.3C147.95 199.4 146.9 198.35 146.2 197.15C145.6 195.85 145.15 194.5 144.85 193.1C144.55 191.7 144.4 190.25 144.4 188.75C144.4 187.25 144.4 185.85 144.4 184.55V172.85L144.25 149.9C144.25 148.3 144.25 147.05 144.25 146.15C144.25 145.25 144.25 144.45 144.25 143.75C144.25 142.95 144.2 142.1 144.1 141.2C144.1 140.2 144.1 138.8 144.1 137C144.1 136.7 144.1 136.2 144.1 135.5C144.2 134.7 144.15 132.65 143.95 129.35C140.05 135.85 136.8 141.1 134.2 145.1C131.7 149 129.55 152.05 127.75 154.25C126.05 156.35 124.55 157.8 123.25 158.6C121.95 159.3 120.6 159.7 119.2 159.8C118.4 159.9 117.6 159.75 116.8 159.35C116 158.95 115.2 158.45 114.4 157.85C113.7 157.25 113 156.65 112.3 156.05C111.7 155.35 111.2 154.7 110.8 154.1C108.4 151.1 105.7 147.5 102.7 143.3C99.7 139.1 96.6 134 93.4 128C93.4 128.1 93.35 129.75 93.25 132.95C93.25 136.15 93.25 140.15 93.25 144.95C93.25 149.65 93.2 154.75 93.1 160.25C93.1 165.65 93.05 170.7 92.95 175.4C92.95 180.1 92.9 184.05 92.8 187.25C92.7 190.35 92.6 191.9 92.5 191.9C92.5 193.6 92.1 195.2 91.3 196.7C90.5 198.1 89.4 199.25 88 200.15C86.7 201.05 85.15 201.55 83.35 201.65C81.55 201.75 79.6 201.25 77.5 200.15C76.2 199.35 75.2 198.2 74.5 196.7C73.9 195.2 73.5 193.8 73.3 192.5C73.2 191.1 73.1 189.75 73 188.45C73 187.15 73 185.8 73 184.4L73.15 172.7L73.3 149.6V129.5C73.3 120.8 73.6 112.25 74.2 103.85C74.2 102.75 74.3 101.75 74.5 100.85C74.8 99.85 75.15 98.9 75.55 98C76.35 96.4 77.4 95.2 78.7 94.4C80.2 93.5 81.8 93.05 83.5 93.05C84.2 93.05 84.85 93.1 85.45 93.2C86.15 93.2 86.8 93.25 87.4 93.35C89.4 93.75 91.1 94.95 92.5 96.95C94 98.85 95.4 100.5 96.7 101.9C97.5 102.8 98.35 103.9 99.25 105.2C100.15 106.5 101.05 107.85 101.95 109.25C102.85 110.65 103.7 112 104.5 113.3C105.3 114.6 106 115.75 106.6 116.75C109.2 120.95 111.5 124.8 113.5 128.3C115.6 131.8 117.55 134.8 119.35 137.3C119.65 137 120 136.6 120.4 136.1C120.8 135.5 121.2 134.9 121.6 134.3C122.1 133.6 122.5 132.95 122.8 132.35C123.2 131.75 123.5 131.25 123.7 130.85C124.7 129.25 125.7 127.7 126.7 126.2C127.7 124.6 128.75 122.95 129.85 121.25C131.05 119.45 132.25 117.5 133.45 115.4C134.75 113.3 136.25 110.9 137.95 108.2C138.65 107 139.55 105.55 140.65 103.85C141.75 102.15 143 100.5 144.4 98.9C145.8 97.3 147.25 95.95 148.75 94.85C150.35 93.65 151.95 93.05 153.55 93.05C154.35 93.05 155.05 93.1 155.65 93.2C156.25 93.2 156.85 93.25 157.45 93.35C158.65 93.45 159.8 94 160.9 95C161.7 95.8 162.3 96.65 162.7 97.55C163.1 98.85 163.35 99.95 163.45 100.85C163.55 101.55 163.6 102.2 163.6 102.8C163.7 103.4 163.75 104 163.75 104.6C163.75 110.2 163.8 115.75 163.9 121.25C164 126.75 164.05 132.3 164.05 137.9C164.05 144.7 164.05 151.7 164.05 158.9C164.15 166.1 164.2 173.1 164.2 179.9C164.2 181.3 164.25 182.8 164.35 184.4C164.45 186 164.45 187.6 164.35 189.2Z" fill="white"/>
</g>
<defs>
<filter id="filter0_d_0_1" x="0" y="0" width="291" height="258" filterUnits="userSpaceOnUse" color-interpolation-filters="sRGB">
<feFlood flood-opacity="0" result="BackgroundImageFix"/>
<feColorMatrix in="SourceAlpha" type="matrix" values="0 0 0 0 0 0 0 0 0 0 0 0 0 0 0 0 0 0 127 0" result="hardAlpha"/>
<feOffset dy="4"/>
<feGaussianBlur stdDeviation="2"/>
<feComposite in2="hardAlpha" operator="out"/>
<feColorMatrix type="matrix" values="0 0 0 0 0 0 0 0 0 0 0 0 0 0 0 0 0 0 0.25 0"/>
<feBlend mode="normal" in2="BackgroundImageFix" result="effect1_dropShadow_0_1"/>
<feBlend mode="normal" in="SourceGraphic" in2="effect1_dropShadow_0_1" result="shape"/>
</filter>
<filter id="filter1_b_0_1" x="127.491" y="8.49103" width="147.027" height="147.027" filterUnits="userSpaceOnUse" color-interpolation-filters="sRGB">
<feFlood flood-opacity="0" result="BackgroundImageFix"/>
<feGaussianBlur in="BackgroundImageFix" stdDeviation="2"/>
<feComposite in2="SourceAlpha" operator="in" result="effect1_backgroundBlur_0_1"/>
<feBlend mode="normal" in="SourceGraphic" in2="effect1_backgroundBlur_0_1" result="shape"/>
</filter>
<filter id="filter2_b_0_1" x="29.1924" y="58.1924" width="176.088" height="172.174" filterUnits="userSpaceOnUse" color-interpolation-filters="sRGB">
<feFlood flood-opacity="0" result="BackgroundImageFix"/>
<feGaussianBlur in="BackgroundImageFix" stdDeviation="2"/>
<feComposite in2="SourceAlpha" operator="in" result="effect1_backgroundBlur_0_1"/>
<feBlend mode="normal" in="SourceGraphic" in2="effect1_backgroundBlur_0_1" result="shape"/>
</filter>
<radialGradient id="paint0_radial_0_1" cx="0" cy="0" r="1" gradientUnits="userSpaceOnUse" gradientTransform="translate(201.005 82.0047) rotate(-78.4536) scale(69.5)">
<stop offset="0.331667" stop-color="#1C62EA"/>
<stop offset="0.9996" stop-color="#4A83F1"/>
<stop offset="0.9997" stop-color="#77A2F7"/>
<stop offset="0.9998" stop-color="#5C8FF3"/>
</radialGradient>
<radialGradient id="paint1_radial_0_1" cx="0" cy="0" r="1" gradientUnits="userSpaceOnUse" gradientTransform="translate(176.895 116.027) rotate(169.132) scale(145.773 142.107)">
<stop stop-color="#13A7B1" stop-opacity="0.2"/>
</radialGradient>
</defs>
</svg>
